<svg xmlns="http://www.w3.org/2000/svg" xmlns:xlink="http://www.w3.org/1999/xlink" width="40.6280517578125" height="39.1116943359375" viewBox="0 0 40.6280517578125 39.1116943359375" fill="none">
<path   fill-rule="evenodd"  fill="#141414"  d="M35.0318 6.805C32.923 4.693 29.3582 4.4018 25.067 5.9314C23.6142 6.4434 22.1582 7.1698 20.8494 7.973C15.1053 4.549 9.65249 3.893 6.74367 6.8786C3.83486 9.8642 4.41726 15.1826 7.83488 20.9362C7.54368 21.4482 7.25248 21.8834 7.03487 22.3954C4.34366 27.6402 4.05246 32.373 6.74367 35.0674C8.12608 36.3794 9.94369 37.0354 11.7613 36.9618C14.3789 36.8914 16.9229 36.1618 19.2525 34.8498C20.4878 34.1938 21.6494 33.5378 22.7406 32.7378C24.7054 31.3554 26.4494 29.8962 28.123 28.2226C28.9966 27.349 29.867 26.4018 30.667 25.4546C31.0318 25.0898 31.323 24.6514 31.6142 24.2162C31.9022 24.7986 32.1934 25.4546 32.4142 26.1106L32.4846 26.4018C32.923 27.5666 33.2142 28.805 33.2142 30.0434C33.2846 30.917 32.9934 31.8642 32.4142 32.5202C31.323 33.6114 29.067 33.6114 26.2318 32.5938L25.9406 32.5202C25.2878 33.029 24.6318 33.5378 24.0494 33.9762C23.5406 34.341 23.1054 34.6322 22.5966 34.9234C23.3966 35.3618 24.1966 35.653 25.067 36.0146C26.5966 36.597 28.267 36.9618 29.9406 36.9618C30.8846 36.9618 31.8318 36.8178 32.7758 36.5266C33.5758 36.2354 34.3758 35.7234 34.9582 35.141C37.0671 33.029 37.4319 29.461 35.8318 25.2338C35.5406 24.3602 35.2494 23.5602 34.811 22.757C34.523 22.1746 34.1582 21.5922 33.867 20.9362C34.667 19.5538 35.323 18.1682 35.9022 16.7122C37.4319 12.4146 37.1406 8.917 35.0318 6.805ZM32.4857 9.35596C31.3948 8.26276 29.068 8.26276 26.3046 9.2829C25.5777 9.50117 24.8499 9.86558 24.123 10.1569C24.6321 10.5213 25.0686 10.8848 25.5777 11.3223C26.4498 12.0511 27.3228 12.852 28.1223 13.653C29.3584 14.9644 30.5218 16.2759 31.6126 17.6595C31.9765 17.0038 32.2669 16.2759 32.5583 15.5471C33.5765 12.7059 33.5765 10.4483 32.4857 9.35596Z">
</path>
<path fill-rule="evenodd"  fill="rgba(255, 255, 255, 1)"  d="M37.7865 17.3828Q40.5808 9.5318 36.4471 5.39186Q32.2937 1.23215 24.3954 4.0475C23.1679 4.4801 21.9832 5.02757 20.8423 5.66106Q10.6531 5.72205e-06 5.31116 5.48293Q5.24521e-06 10.9343 5.52831 20.9342Q5.34326 21.2759 5.22633 21.5392Q0.210967 31.3571 5.32862 36.4808L5.3475 36.4997L5.36688 36.5181Q8.0997 39.1117 11.8422 38.9602Q16.2275 38.8424 20.2121 36.6047Q20.5467 36.4269 20.8619 36.2534L21.6354 36.6773Q22.3606 37.0747 23.7475 37.6361Q24.1151 37.7849 24.2997 37.8616L24.3273 37.873L24.3553 37.8837Q27.1868 38.9618 29.9406 38.9618Q31.6665 38.9618 33.3654 38.4377L33.4131 38.423L33.4599 38.406Q35.1294 37.7983 36.3725 36.5552Q40.628 32.2932 37.7166 24.5635Q37.1563 22.8901 36.5856 21.8339Q36.4511 21.5651 36.1898 21.0879Q36.1595 21.0327 36.1306 20.9795Q37.0219 19.3084 37.7606 17.4515L37.7742 17.4174L37.7865 17.3828ZM18.7743 35.1094C18.9347 35.0256 19.0941 34.939 19.2525 34.8498C20.4878 34.1938 21.6494 33.5378 22.7406 32.7378C22.8228 32.6799 22.9047 32.6219 22.9862 32.5638C22.9973 32.5558 23.0084 32.5479 23.0196 32.5399C23.9767 31.8556 24.882 31.1511 25.7534 30.41C26.568 29.7173 27.3529 28.9927 28.123 28.2226C28.8371 27.5085 29.5491 26.7452 30.2223 25.9729C30.3726 25.8004 30.521 25.6275 30.667 25.4546C31.0318 25.0898 31.323 24.6514 31.6142 24.2162C31.9022 24.7986 32.1934 25.4546 32.4142 26.1106L32.4846 26.4018C32.4859 26.4053 32.4872 26.4087 32.4885 26.4122C32.9248 27.574 33.2142 28.8087 33.2142 30.0434C33.2846 30.917 32.9934 31.8642 32.4142 32.5202C31.3247 33.6097 29.074 33.6114 26.2451 32.5986C26.2406 32.597 26.2362 32.5954 26.2318 32.5938L25.9406 32.5202C25.4568 32.8972 24.9713 33.2743 24.5153 33.6227C24.356 33.7444 24.2002 33.8627 24.0494 33.9762C23.5406 34.341 23.1054 34.6322 22.5966 34.9234C22.688 34.9735 22.7795 35.0217 22.8711 35.0683C23.4945 35.3856 24.1227 35.6287 24.789 35.9003C24.8809 35.9378 24.9736 35.9758 25.067 36.0146C26.5966 36.597 28.267 36.9618 29.9406 36.9618C30.8846 36.9618 31.8318 36.8178 32.7758 36.5266L32.7759 36.5266C33.5759 36.2354 34.3758 35.7234 34.9582 35.141C37.0671 33.029 37.4319 29.461 35.8318 25.2338C35.5406 24.3602 35.2494 23.5602 34.811 22.757C34.523 22.1746 34.1582 21.5922 33.867 20.9362C34.667 19.5538 35.323 18.1682 35.9022 16.7122C37.4319 12.4146 37.1406 8.917 35.0318 6.805C32.923 4.693 29.3582 4.4018 25.067 5.9314C23.6142 6.4434 22.1582 7.1698 20.8494 7.973C15.1053 4.549 9.65249 3.893 6.74367 6.8786C3.83486 9.8642 4.41726 15.1826 7.83488 20.9362C7.54368 21.4482 7.25248 21.8834 7.03487 22.3954C4.34366 27.6402 4.05246 32.373 6.74367 35.0674C8.12608 36.3794 9.94369 37.0354 11.7613 36.9618C14.2009 36.8962 16.5765 36.258 18.7743 35.1094ZM26.3047 9.28288C29.068 8.26276 31.3948 8.26277 32.4857 9.35596C33.5765 10.4483 33.5765 12.7059 32.5583 15.5471C32.5494 15.5692 32.5406 15.5913 32.5317 15.6134C32.2493 16.32 31.9655 17.0237 31.6127 17.6595L31.6126 17.6595L31.6125 17.6594C31.1592 17.0844 30.6934 16.5219 30.215 15.9666C29.5422 15.1858 28.8447 14.4194 28.1223 13.653C27.4166 12.946 26.6537 12.239 25.8846 11.5816C25.7824 11.4943 25.68 11.4078 25.5777 11.3223C25.0686 10.8848 24.6321 10.5213 24.123 10.1569C24.8389 9.86998 25.5557 9.51217 26.2716 9.2929C26.2826 9.28953 26.2936 9.2862 26.3046 9.2829L26.3047 9.28288ZM28.0346 10.8083Q30.3962 10.0934 31.0699 10.7686L31.0705 10.7692Q31.731 11.4307 31.0139 13.8461Q30.3332 13.0828 29.5778 12.2813L29.5581 12.2604L29.5379 12.24Q28.7977 11.4985 28.0346 10.8083ZM28.0236 31.0766Q30.2807 31.732 30.9583 31.1449Q31.2654 30.7586 31.2207 30.2041L31.2143 30.1239L31.2143 30.0434C31.2143 29.4077 31.1147 28.7754 30.9518 28.1585Q30.26 28.914 29.5372 29.6368Q28.7991 30.3749 28.0236 31.0766Z">
</path>
</svg>
